<svg xmlns="http://www.w3.org/2000/svg" viewBox="0 0 200 200">
  <defs>
    <path id="pesoTextPath" d="M 30,100 A 70,70 0 0 1 170,100" />
  </defs>

  <circle cx="100" cy="100" r="98" fill="#ffffff" stroke="#111111" stroke-width="2"/>

  <g fill="#d61f26">
    <g id="gearTeeth">
      <!-- 16 gear teeth around the red ring -->
      <g>
        <rect x="96" y="16" width="8" height="16" rx="1.5"/>
        <g transform="rotate(22.5 100 100)"><rect x="96" y="16" width="8" height="16" rx="1.5"/></g>
        <g transform="rotate(45 100 100)"><rect x="96" y="16" width="8" height="16" rx="1.5"/></g>
        <g transform="rotate(67.5 100 100)"><rect x="96" y="16" width="8" height="16" rx="1.5"/></g>
        <g transform="rotate(90 100 100)"><rect x="96" y="16" width="8" height="16" rx="1.5"/></g>
        <g transform="rotate(112.5 100 100)"><rect x="96" y="16" width="8" height="16" rx="1.5"/></g>
        <g transform="rotate(135 100 100)"><rect x="96" y="16" width="8" height="16" rx="1.5"/></g>
        <g transform="rotate(157.5 100 100)"><rect x="96" y="16" width="8" height="16" rx="1.5"/></g>
        <g transform="rotate(180 100 100)"><rect x="96" y="16" width="8" height="16" rx="1.5"/></g>
        <g transform="rotate(202.5 100 100)"><rect x="96" y="16" width="8" height="16" rx="1.5"/></g>
        <g transform="rotate(225 100 100)"><rect x="96" y="16" width="8" height="16" rx="1.5"/></g>
        <g transform="rotate(247.5 100 100)"><rect x="96" y="16" width="8" height="16" rx="1.5"/></g>
        <g transform="rotate(270 100 100)"><rect x="96" y="16" width="8" height="16" rx="1.5"/></g>
        <g transform="rotate(292.5 100 100)"><rect x="96" y="16" width="8" height="16" rx="1.5"/></g>
        <g transform="rotate(315 100 100)"><rect x="96" y="16" width="8" height="16" rx="1.5"/></g>
        <g transform="rotate(337.5 100 100)"><rect x="96" y="16" width="8" height="16" rx="1.5"/></g>
      </g>
    </g>
    <circle cx="100" cy="100" r="72" />
  </g>
  <circle cx="100" cy="100" r="58" fill="#ffffff"/>

  <text font-family="Arial, Helvetica, sans-serif" font-weight="700" font-size="12.5" fill="#1e3a8a" letter-spacing="1.5">
    <textPath href="#pesoTextPath" startOffset="50%" text-anchor="middle">
      PUBLIC EMPLOYMENT SERVICE OFFICE
    </textPath>
  </text>

  <g>
    <circle cx="100" cy="103" r="26" fill="#fdd835"/>
    <g fill="#fdd835">
      <g id="sunRays">
        <polygon points="100,40 106,66 94,66" />
        <g transform="rotate(45 100 103)"><polygon points="100,40 106,66 94,66" /></g>
        <g transform="rotate(90 100 103)"><polygon points="100,40 106,66 94,66" /></g>
        <g transform="rotate(135 100 103)"><polygon points="100,40 106,66 94,66" /></g>
        <g transform="rotate(180 100 103)"><polygon points="100,40 106,66 94,66" /></g>
        <g transform="rotate(225 100 103)"><polygon points="100,40 106,66 94,66" /></g>
        <g transform="rotate(270 100 103)"><polygon points="100,40 106,66 94,66" /></g>
        <g transform="rotate(315 100 103)"><polygon points="100,40 106,66 94,66" /></g>
      </g>
    </g>
  </g>

  <g fill="#ffffff" stroke="#111111" stroke-width="1.4" stroke-linejoin="round">
    <circle cx="80" cy="118" r="7"/>
    <circle cx="93" cy="112" r="7.5"/>
    <circle cx="107" cy="112" r="7.5"/>
    <circle cx="120" cy="118" r="7"/>
  </g>

  <g fill="#ffffff" stroke="#111111" stroke-width="1.6" stroke-linejoin="round" stroke-linecap="round">
    <path d="M 58,150 C 60,132 70,120 82,118 L 84,128 C 76,130 70,138 68,150 Z"/>
    <path d="M 142,150 C 140,132 130,120 118,118 L 116,128 C 124,130 130,138 132,150 Z"/>
  </g>
  <rect x="88" y="146" width="24" height="7" fill="#111111"/>

  <text x="100" y="176" text-anchor="middle" font-family="Arial, Helvetica, sans-serif" font-weight="800" font-size="24" fill="#d61f26" letter-spacing="1">PESO</text>
  <circle cx="58" cy="172" r="3.2" fill="#1e3a8a"/>
  <circle cx="142" cy="172" r="3.2" fill="#1e3a8a"/>
</svg>
